<svg viewBox="0 0 1366 530" xmlns="http://www.w3.org/2000/svg"><g fill-rule="nonzero" fill="none"><path d="M235.6 420.4l9.2-11A32.5 32.5 0 00266 418c6.4 0 10.2-2.5 10.2-6.7v-.2c0-3.9-2.4-6-14.3-9-14.3-3.6-23.5-7.6-23.5-21.7v-.2c0-12.9 10.3-21.4 24.8-21.4 10.3 0 19.1 3.2 26.3 9l-8.1 11.7c-6.3-4.4-12.5-7-18.4-7-6 0-9.1 2.7-9.1 6.2v.2c0 4.7 3 6.2 15.3 9.3 14.4 3.7 22.5 8.9 22.5 21.3v.2c0 14.1-10.7 22-26 22a45 45 0 01-30.1-11.3zM344.7 358.6a36.6 36.6 0 00-37.8 36.6v.2a36.3 36.3 0 0037.6 36.4 36.6 36.6 0 0037.8-36.6v-.2a36.3 36.3 0 00-37.6-36.4zm21.3 36.9c0 12.1-8.7 22.1-21.3 22.1-12.6 0-21.5-10.1-21.5-22.3v-.2c0-12.1 8.7-22.1 21.3-22.1 12.6 0 21.5 10.1 21.5 22.3v.2zM400.2 359.9h14.4l33.2 43.6v-43.6h15.4v70.8h-13.3l-34.3-45v45h-15.4zM483 395.5v-.2a36.4 36.4 0 0137.2-36.6c12.8 0 20.4 3.4 27.8 9.7l-9.8 11.8a26 26 0 00-18.5-7.2c-11.3 0-20.3 10-20.3 22.1v.2c0 13 8.9 22.5 21.5 22.5 5.7 0 10.7-1.4 14.7-4.3v-10.1h-15.7v-13.5h30.8v30.8a45.9 45.9 0 01-30.3 11.2c-22.2 0-37.4-15.5-37.4-36.4zM604.9 395.5v-.2a36 36 0 0137-36.6c13.4 0 21.4 4.5 27.9 10.9l-9.9 11.4c-5.5-5-11-8-18.1-8-11.9 0-20.5 9.9-20.5 22.1v.2c0 12.1 8.4 22.3 20.5 22.3 8.1 0 13.1-3.2 18.6-8.3l9.9 10a36.2 36.2 0 01-29.1 12.6 35.8 35.8 0 01-36.3-36.4zM721.5 358.6a36.6 36.6 0 00-37.8 36.6v.2a36.3 36.3 0 0037.6 36.4 36.6 36.6 0 0037.8-36.6v-.2a36.4 36.4 0 00-37.6-36.4zm21.2 36.9c0 12.1-8.7 22.1-21.3 22.1-12.6 0-21.4-10.2-21.4-22.3v-.2c0-12.1 8.7-22.1 21.3-22.1a21.6 21.6 0 0121.5 22.3v.2h-.1zM777 359.9h14.3l33.2 43.6v-43.6h15.4v70.8h-13.2l-34.4-45v45H777zM878 374.2h-21.6v-14.3h58.7v14.3h-21.5v56.5H878zM933.2 359.9h53.4v13.8h-37.9v14.4h33.4V402h-33.4v14.9h38.4v13.8h-53.9zM1002.1 420.4l9.2-11a32.5 32.5 0 0021.2 8.6c6.4 0 10.2-2.5 10.2-6.7v-.2c0-3.9-2.4-6-14.3-9-14.3-3.6-23.5-7.6-23.5-21.7v-.2c0-12.9 10.3-21.4 24.8-21.4 10.3 0 19.1 3.2 26.3 9l-8.1 11.7c-6.3-4.4-12.5-7-18.4-7-6 0-9.1 2.7-9.1 6.2v.2c0 4.7 3 6.2 15.3 9.3 14.4 3.7 22.5 8.9 22.5 21.3v.2c0 14.1-10.7 22-26 22a45.2 45.2 0 01-30.1-11.3zM1092.7 374.2h-21.5v-14.3h58.7v14.3h-21.6v56.5h-15.6zM1181.5 127.7c7.9-9.1 13.2-14.5 12-20.8-1.2-6.3-22.7-10.7-32.3-1.9-28.3-22.4-22.5 3.8-18.4 9.7-33.4 23.5-56 85.3-37.8 133.6 17.8 47.2 71.4 53 99.5 19.8 25-29.4 20.6-83.3-23-140.4m-21.7 135.8c-18.3-.9-28.7-22.5-27.4-44.6 2.2-38.9 34.8-78.2 34.8-78.2 7.6 6.9 30.5 44.5 29.2 73.3-1.3 28-18.4 50.5-36.6 49.5zM134.3 69.9c-82.3 9-109.7 57-112.3 63.5-1.9 5-1.4 6.1 4 6.1s80.2-8.3 101.8-7.2c22 1.1 20.6 25.3 3.3 30.3C60.3 182.5 19.2 233 19.2 259c0 19.9 14.4 29.2 31.1 29.2 49.5 0 99.5-51.4 108.8-62.7 5.9-7.1 9.5-2.6 9.5.5.1 41.8-44.8 91.1-105 91.1-43 0-63.5-32.9-63.5-60.3 0-52 56.3-96.4 56.3-96.4s-28.5 1.1-38.3 1.1c-7.9 0-13.4-5.9-13.6-12.4-2.7-67.6 67-119.8 130-115.2 24.8 1.9 27.6 33.8-.2 36zM207 227.8c1.2 12.4 9.7 25.5 21.2 12.9 29.1-33.7 26.2-126.7 25.5-136.8-.7-10.1 4.7-12.9 8.6-7.5a146 146 0 0122.6 80.8c0 55.3-33 111.9-58.8 111.9-58.9 0-53.5-134.9-35.9-179.4 9.1-23.1 33.4-13.1 33.4 3.2-.1 23.7-20.2 78.6-16.6 114.9zM505.8 122.3s9.3-12.7 3.7-19.9c-6.3-8.1-26.6-10.6-45.5 10.7-25 28-42.5 87-23.6 136.6 18.1 47.4 68.7 51.4 92.2 15.5 21-32.1 15.5-85.5-26.8-142.9zm-13.2 135.5c-16.5 0-25.7-21.4-25.7-44.5 0-40.9 29.4-78.1 29.4-78.1 8.1 10.3 27.6 39.4 27.6 68.8-.1 29.5-14.8 53.8-31.3 53.8z" fill="#FFF"/><path d="M354.5 189.8c34.3-2.2 77.3-28.9 77.3-57.4 0-21.1-22-36.3-50.5-36.3s-60 9.6-71.9 16.8c-15.5 9-4 30.3 10.5 24.6 0 0-5.4 25.3-6.9 38.6-11.7-1.4-14.1.7-13.4 3.2.7 2.5 5.8 4.7 11.6 11.9-1.8 15.9-5 86.5-4.3 92.7.7 6.2 4.5 7.2 9.7.7 4.7-5.8 14.8-19.7 19.4-72.4 5.4 4.7 20.2 24.5 38.3 47.7 26.5 33.9 35.2 36.4 46.1 40.2 5.9 2.1 11.9-1.3 7.6-7.3-17.6-24.5-39.7-73.4-73.5-103zm-11.9-56.7s41.2-10.5 55.2-9c12.3 1.3 14.8 6.5 8.6 16.2-14.7 22.8-48.5 30.7-66.7 30.4l2.9-37.6zM875.3 96.8c10.8 3.5 20.2 22 17.6 52.2-4.3 49.3-37.5 110.6-42.3 133.9-1.6 7.8-7.7 7.4-10.4 3.1-2.6-4.1-8.2-16.7-6.7-47.7 2.1-42.6 34.3-100.9 33.4-137.6-.3-4.9 3.6-5.5 8.4-3.9zM984.6 131.6c-37.9 0-49.7 11.7-49.7 20.6 0 23.8 41.2 22.1 60.2 24.3 11 1.3 25.3 8.4 25.3 27.4 0 21-26.3 37.9-54.2 53.2-29.3 16.1-59.6 32-73.4 41.5-7.1 4.9-11.7-1.4-8.3-8.1 9.8-19.1 28.2-37.1 53.3-54.2 36.8-25 60.4-36.3 50.6-39.9-5.5-2-20.5-3.1-35.9-6-26.5-4.3-43.1-19.7-43.1-42.1 0-36.3 32.6-52.4 77.7-52.4 23.8.1 26.8 35.7-2.5 35.7zM1056 96.2c12 1 32.5 17.1 30.2 58.6-1.8 32.6-29.5 102.7-31.9 128.5-.5 5.3-5.7 8.2-9.7 3.3-7.8-9.5-11.1-19.8-11.1-49.1s25.1-106.4 10.4-134.8c-3.3-5.9 5.5-7.1 12.1-6.5zM1053.9 9.3c-2.5-9.9 8.1-11 15.6-4.9 4.8 4 28.9 27.8 28.9 56.6 0 33-45.1 28.7-44.3 1.7.3-9.5 5.5-32.6-.2-53.4zM1354.2 289.7c-28.8-24.9-26.1-96.1-27.5-124.2-1.4-27.7-36.2-25.6-44.7-14-6.1 35.5-8.2 99.3-26.2 134.3-2.6 4.7-9.2 3.9-9.9-1.5-.7-5.7-7.4-20.5-7.4-62.4s4.9-102.3 38.7-123.3c6.2-3.3 10.4-3.3 10.6.2.2 3.1-.9 12.9-1.1 19.3 0 0 12.8-9.7 34.3-9.7 16.6 0 44.5 17.3 44.5 50.9 0 44-8.1 90.7-2.2 127 .8 5.2-5.2 6.7-9.1 3.4zM807 131.1c5.3-12.1 9.2-24.6 10.3-37.9l-240.1 21.6-1.4 11.6c-2 21.4.8 42 10.6 61.2 3.6 7 8.2 13.6 12.4 20.3l168.5-16.4 8.4-10.1c12.3-15.6 23.3-32 31.3-50.3z" fill="#FFF"/><path d="M810.9 95.6c.9-9 7.9-18.8 6.4-27.7-1.5-9.1-2.2-18.9-7-26.9a54.4 54.4 0 00-35.7-24c-11-1.4-27.8-1.4-37.7 3.5-14.5 7.3-23.1 18-32.8 30.8-5.7 7.6-12.6 15.2-14.8 24.7-.2.9-1.3 6.7-1.8 7.5-2.2 4.2-.9 4.1-4 .7-1.9-2.1-1.1-5.5-1.9-8.1-1.6-5.9-7.3-11-11.3-15.6A42 42 0 00633.1 47a62 62 0 00-30.7 13.2 63.8 63.8 0 00-18.7 56.5l227-20.4.2-.7z" fill="#FC0000"/><path d="M610 227.1c12.7 13.3 33.1 25.6 47.3 37 7.2 5.7 13.3 9.8 19.2 17 1.1 1.3 8.4 6.5 9.5 8 3.5-8.8 16.6-21.5 24.9-30.7 12.6-13.9 32.5-29.8 45.1-43.6 7.6-8.4 11.4-16.5 7.5-25.5l-159.4 15.5c-4.2 8 0 16.2 5.9 22.3z" fill="#0750C6"/><path d="M685.6 62.8c5.3-9 11.4-17.4 18.6-25 14.8-15.8 32-27.8 53.1-34 30.2-8.9 56.8 3.8 73.2 25.8A88.9 88.9 0 01847 70.9c4.9 33.1-3.4 63.1-20.8 91.1a264.2 264.2 0 01-43.3 51.6c-14.8 14-30.1 27.4-45.2 41.1-11.9 10.8-23.9 21.5-33.9 34.2-4.6 5.8-8.5 12-11.1 19.1-1.5 4.2-5.7 5.1-8.2 1.6a79.9 79.9 0 00-22-19.4c-13.3-8.7-26.8-17-40-25.9-16-10.7-30.7-23-42.8-38.1a122.3 122.3 0 01-26.1-58.6 150 150 0 014.1-65.9 99.4 99.4 0 0128.7-46.6 78.6 78.6 0 0139.5-20.6 53 53 0 0123.7 2A60.5 60.5 0 01680 55c2 2.2 3.7 5 5.6 7.8zm77.8 126.5l7.9-9.6a217 217 0 0029.7-47.6 112 112 0 009.7-35.8l.2-.6c.9-9 .6-18-.9-27a74 74 0 00-8.9-25.8 40 40 0 00-30.2-20.7c-11-1.4-21.5.9-31.4 5.8-14.5 7.3-26 18.1-35.7 31a67.2 67.2 0 00-13 25c-.2.9-.6 1.7-1 2.4-2.2 4.2-6 5-9.2 1.5a19.5 19.5 0 01-4.2-7.4 39.2 39.2 0 00-8.2-15.8A39 39 0 00633 51.1a42 42 0 00-24.4 12.2c-15.4 14.4-21.9 33.1-24.9 53.4l-1.3 11c-1.9 20.2.8 39.7 10 57.9 3.4 6.7 7.8 12.8 11.7 19.2 5.5 6.5 10.7 13.3 16.5 19.4 12.7 13.3 27.2 24.4 41.5 35.8 7.2 5.7 14.4 11.4 20.2 18.6 1.1 1.3 2 2.8 3.1 4.3 3.5-8.8 9-17.7 17.4-26.9 12.6-13.9 25.4-27.5 38.1-41.3l22.5-25.4zM248.8 470h25a23 23 0 0116.5 5.8c2.8 2.8 4.5 6.9 4.5 11.5v.2c0 9.6-6.6 15.3-15.8 16.9l17.8 23.7h-8.1l-16.8-22.6h-16.6v22.6h-6.6V470h.1zm24.4 29.6c8.7 0 14.9-4.5 14.9-12v-.2c0-7.1-5.5-11.5-14.9-11.5h-17.9v23.6h17.9v.1zM314.4 499.2v-.2c0-16 12-30 29.7-30a29.1 29.1 0 0129.5 29.9v.2c0 16-12 30-29.7 30a29.1 29.1 0 01-29.5-29.9zm52.5 0v-.2c0-13.2-9.6-24-22.9-24-13.3 0-22.7 10.6-22.7 23.8v.2c0 13.2 9.6 24 22.9 24 13.3 0 22.7-10.6 22.7-23.8zM407.7 476.1h-19.5V470h45.6v6.1h-19.5v52h-6.6zM472 476.1h-19.5V470h45.6v6.1h-19.5v52H472zM518.7 470h42v6h-35.4v19.8H557v6h-31.7v20.3h35.9v6h-42.4V470zM582.6 470h25a23 23 0 0116.5 5.8c2.8 2.8 4.5 6.9 4.5 11.5v.2c0 9.6-6.6 15.3-15.8 16.9l17.8 23.7h-8.1l-16.8-22.6h-16.6v22.6h-6.6V470h.1zm24.4 29.6c8.7 0 14.9-4.5 14.9-12v-.2c0-7.1-5.5-11.5-14.9-11.5h-17.9v23.6H607v.1zM652.1 470h20.2c18.3 0 30.9 12.5 30.9 28.9v.2c0 16.3-12.6 29-30.9 29h-20.2V470zm6.5 6.1v46h13.6c14.7 0 24.1-10 24.1-22.8v-.2c0-12.9-9.4-23-24.1-23h-13.6zM743.4 469.6h6.1l26.5 58.5h-7l-6.8-15.4h-31.6l-6.9 15.4H717l26.4-58.5zm16.2 37.2l-13.2-29.5-13.3 29.5h26.5zM796.3 470h6.6l21.2 31.7 21.2-31.7h6.6v58.1h-6.6V481l-21.2 31.1h-.3l-21.2-31v47h-6.4V470zM912 522.9l21.3-18.8c9-8.1 12.3-12.6 12.3-18.5 0-6.9-5.5-11.3-11.8-11.3-6.7 0-11.1 3.5-15.8 10.1l-4.9-3.5c5.3-7.9 10.8-12.5 21.2-12.5 10.6 0 18.2 7.1 18.2 16.6v.2c0 8.6-4.5 13.9-14.9 22.8l-15.7 14H953v6h-41v-5.1zM971.3 498.8v-.2c0-16.5 9.8-30.4 24.9-30.4 15.1 0 24.7 13.8 24.7 30.2v.2c0 16.5-9.7 30.4-24.9 30.4-15.2.1-24.7-13.7-24.7-30.2zm42.7 0v-.2c0-12.9-7.1-24.4-18-24.4-11 0-17.9 11.3-17.9 24.2v.2c0 12.9 7.1 24.4 18.1 24.4 11 0 17.8-11.3 17.8-24.2zM1037.1 522.9l21.3-18.8c9-8.1 12.3-12.6 12.3-18.5 0-6.9-5.5-11.3-11.8-11.3-6.7 0-11.1 3.5-15.8 10.1l-4.9-3.5c5.3-7.9 10.8-12.5 21.2-12.5 10.6 0 18.2 7.1 18.2 16.6v.2c0 8.6-4.5 13.9-14.9 22.8l-15.7 14h31.2v6h-41.1v-5.1zM1106.3 475.7l-11.1 3.4-1.6-5.4 14.4-5h4.9v59.2h-6.6v-52.2z" fill="#FFF"/></g></svg>
