<svg width="312" height="283" xmlns="http://www.w3.org/2000/svg"><g fill="none" fill-rule="evenodd"><path d="M165.4 1.1c-1.9 0-3 1-3.9 2.1V1.3h-3.7v13.2h3.7V7.2c0-1.8 1.1-2.7 2.4-2.7 1.4 0 2.3.9 2.3 2.7v7.3h3.7V6c0-3.1-1.7-4.9-4.5-4.9zm-19.7 5.8c.3-1.7 1.3-2.8 2.9-2.8 1.6 0 2.6 1.1 2.8 2.8h-5.7zm2.9-5.8c-3.8 0-6.5 3.1-6.5 6.9 0 4 2.9 6.8 6.9 6.8 2.3 0 4-.9 5.3-2.3l-2.2-1.9c-1 .9-1.9 1.2-3.1 1.2-1.7 0-2.9-.9-3.2-2.6h9.2v-1c0-3.7-2-7.1-6.4-7.1zm51.5 6.8c0 3.1-1.9 5.2-4.8 5.2-3.1 0-4.9-2.7-4.9-5.2v-.1c0-3.2 2.5-5.2 4.9-5.2 2.8 0 4.8 2.3 4.8 5.3zM195.5 1c-2 0-3.7.9-5 2.7V1.3h-1.7v17.1h1.7v-6.2c1.3 1.7 3 2.6 5 2.6 3.2 0 6.4-2.6 6.4-6.9v-.1c0-4.2-3.3-6.8-6.4-6.8zm-12.1 7.9c0 2.5-1.8 4.3-4.2 4.3-2.4 0-3.8-1.5-3.8-4.1V1.3h-1.7v8c0 3.3 2.1 5.5 5.3 5.5 1.9 0 3.3-.7 4.4-2.1v1.8h1.7V1.3h-1.7v7.6zM120.1 8c0 1.9-1.3 3.6-3.4 3.6-2.1 0-3.5-1.7-3.5-3.6v-.1c0-1.9 1.3-3.6 3.4-3.6 2.1 0 3.5 1.7 3.5 3.7zm-3.4-6.9c-4.1 0-7.2 3.1-7.2 6.9 0 3.8 3 6.8 7.1 6.8s7.2-3.1 7.2-6.9c0-3.8-3-6.8-7.1-6.8zm19.5 6.8c0 2.2-1.5 3.6-3.2 3.6-1.7 0-3.2-1.5-3.2-3.6 0-2.2 1.5-3.6 3.2-3.6 1.7-.1 3.2 1.4 3.2 3.6zm-2.3-6.8c-1.9 0-3.2.9-4.1 2.1V1.3h-3.7v17.2h3.7v-5.7c.9 1.1 2.1 2 4.1 2 3.1 0 6-2.4 6-6.8v-.1c0-4.4-2.9-6.8-6-6.8z" fill="#FFF"/><path d="M286.524859 173.308923c-.8 4.1-1.8 8.3-3 12.3l21.3 6.3c1.4-4.7 2.6-9.5 3.5-14.4l-21.8-4.2" fill="#1AC0F8"/><path d="M283.624859 185.608923c-1.2 4.1-2.6 8-4.1 12l20.6 8.2c1.8-4.6 3.4-9.2 4.8-14l-21.3-6.2z" fill="#01AA5A"/><path d="M33.724859 52.108923l122.1 96-112.4-107.1c-3.4 3.5-6.6 7.3-9.7 11.1" fill="#0750C6"/><path d="M43.424859 41.008923l112.4 107.2-101.7-117.4c-3.7 3.2-7.3 6.6-10.7 10.2m267 92.4c-.5-4.9-1.2-9.8-2.1-14.6l-21.8 4.2c.8 4.1 1.4 8.3 1.8 12.5l22.1-2.1z" fill="#FFF"/><path d="M249.124859 208.108923l18.7 12c2.3-3.6 4.4-7.2 6.3-11l-19.7-10.2c-1.6 3.2-3.3 6.2-5.3 9.2" fill="#0750C6"/><path d="M262.324859 179.408923l21.3 6.3c1.2-4.1 2.2-8.2 3-12.3l-21.8-4.2c-.7 3.4-1.5 6.8-2.5 10.2" fill="#FFF"/><path d="M262.324859 179.408923l-42.6-12.5-63.9-18.8 59.2 30.5c1-1.9 1.8-3.8 2.6-5.8l41.2 16.5c-1.3 3.3-2.8 6.5-4.4 9.6l19.7 10.2c1.9-3.8 3.7-7.6 5.3-11.5 1.6-3.9 3-7.9 4.1-12l-21.2-6.2z" fill="#FC0000"/><path d="M201.924859 249.008923l-9.2-20.2 18.4 40.4c3.8-1.8 7.6-3.7 11.3-5.8l-11.1-19.2c-3.1 1.8-6.2 3.4-9.4 4.8" fill="#0750C6"/><path d="M244.224859 156.608923l44.2 4.2c.4-4.2.6-8.4.6-12.7h-44.4c0 2.9-.2 5.7-.4 8.5" fill="#1AC0F8"/><path d="M176.724859 234.408923l10.5 43.1c4.1-1 8.2-2.2 12.2-3.6l-14.5-41.9c-2.7.9-5.4 1.7-8.2 2.4" fill="#FC0000"/><path d="M260.524859 65.808923c-2.6-3.3-5.4-6.5-8.3-9.6l-16.1 15.3c2.4 2.5 4.7 5.2 6.9 8l17.5-13.7z" fill="#FFF"/><path d="M243.024859 79.608923c2.2 2.8 4.2 5.6 6.1 8.6l18.7-12c-2.3-3.6-4.7-7-7.4-10.3l-17.4 13.7z" fill="#1AC0F8"/><path d="M89.324859 263.408923l44.4-76.9 22.2-38.4-77.3 108.5c3.4 2.4 7 4.7 10.7 6.8" fill="#01AA5A"/><path d="M78.624859 256.608923l77.2-108.4-87.2 100.5c3.2 2.8 6.6 5.4 10 7.9" fill="#FC0000"/><path d="M249.124859 88.208923c1.9 3 3.7 6 5.3 9.1l19.7-10.2c-1.9-3.8-4.1-7.4-6.3-11l-18.7 12.1" fill="#000" fill-rule="nonzero"/><path d="M254.424859 97.308923c1.6 3.1 3.1 6.3 4.4 9.6l20.6-8.2c-1.6-3.9-3.3-7.8-5.3-11.5l-19.7 10.1" fill="#0750C6"/><path d="M200.024859 143.908923c.1 1.4.2 2.8.2 4.2h88.7c0-4.2-.2-8.4-.6-12.7l-88.3 8.5z" fill="#01AA5A"/><path d="M264.824859 169.108923l-43.6-8.4c-.4 2.1-.9 4.1-1.5 6.2l42.6 12.5c1-3.4 1.8-6.8 2.5-10.3z" fill="#1AC0F8"/><path d="M254.424859 199.008923c1.6-3.1 3.1-6.3 4.4-9.6l-41.2-16.5c-.8 2-1.7 3.9-2.6 5.8l39.4 20.3z" fill="#0750C6"/><path d="M211.824859 184.108923l37.3 24c1.9-3 3.7-6 5.3-9.1l-39.4-20.3c-1 1.8-2 3.6-3.2 5.4m-4.5 36.3l12.9 18.1c2.9-2 5.6-4.2 8.3-6.5l-14.6-16.8c-2.1 1.9-4.3 3.6-6.6 5.2" fill="#FFC832"/><path d="M254.424859 97.308923c-1.6-3.1-3.4-6.2-5.3-9.1l-93.3 60 98.6-50.9" fill="#BE0000"/><path d="M258.824859 106.908923c-1.3-3.3-2.8-6.5-4.4-9.6l-98.6 50.8 103-41.2" fill="#FFF"/><path d="M258.824859 106.908923l-103 41.2 106.4-31.3c-.9-3.3-2.1-6.6-3.4-9.9" fill="#FFC832"/><path d="M199.424859 139.708923l65.4-12.6c-.7-3.5-1.5-6.9-2.5-10.3l-106.4 31.3 43.5-8.4z" fill="#01AA5A"/><path d="M133.624859 186.608923l-33.3 57.6c3 1.8 6.2 3.4 9.4 4.8l27.7-60.5c-1.3-.6-2.5-1.2-3.8-1.9" fill="#FFC832"/><path d="M243.024859 79.608923c-2.2-2.8-4.5-5.4-6.9-8l-32.1 30.6c1.5 1.5 2.8 3.1 4.1 4.8l34.9-27.4zm0 137.1c-2.2 2.8-4.5 5.4-6.9 8l16 15.3.1.1 16.1 15.3c6.8-7.1 12.9-14.9 18.3-23.2l-18.7-12c-2.3 3.6-4.7 7-7.3 10.3l-17.6-13.8zm-22.9-7.3l16.1 15.3-16.1-15.3z" fill="#0750C6"/><path d="M249.124859 208.108923l-37.3-24c1.1-1.8 2.2-3.6 3.2-5.5l-59.2-30.5 43.6 50.3 14.5 16.8c2.1-1.8 4.2-3.8 6.1-5.8l-22.1-21.1-40.1-38.3-.3-.3-1.2-1.1-.5-.5 69.8 54.9 17.4 13.7 17.4 13.7c2.6-3.3 5.1-6.8 7.4-10.3l-18.7-12" fill="#FFF"/><path fill="#01AA5A" d="M157.524859 149.708923l.3.4 40.2 38.2-41.7-39.7zm85.5 67l-17.4-13.7c-1.7 2.2-3.6 4.3-5.5 6.4l16.1 15.3c2.3-2.6 4.6-5.2 6.8-8"/><path d="M225.624859 203.008923l-69.8-54.9.5.5 41.6 39.7 22.1 21.1c2-2.1 3.8-4.2 5.6-6.4" fill="#0750C6"/><path d="M207.324859 220.408923l-12.9-18.1-38.6-54.2 44.4 76.9c2.4-1.4 4.8-2.9 7.1-4.6" fill="#FFF"/><path d="M244.224859 156.608923c.3-2.8.4-5.6.4-8.4h-88.8l88.4 8.4" fill="#FFF"/><path d="M221.224859 160.708923l21.8 4.2c.5-2.8.9-5.6 1.2-8.4l-88.3-8.4 65.3 12.6m-44.5-98.8l-20.9 86.2 29-83.9c-2.6-.9-5.3-1.6-8.1-2.3" fill="#FC0000"/><path d="M184.924859 64.308923l-29 83.9 36.9-80.7c-2.7-1.3-5.3-2.3-7.9-3.2" fill="#0750C6"/><path d="M174.324859 188.508923c-1.3.6-2.6 1.1-3.9 1.6l14.5 41.9 14.5 41.9c4-1.4 7.9-3 11.8-4.7l-18.4-40.4m-22.5-38.7l-14.5-41.9 10.5 43.1c1.4-.4 2.7-.8 4-1.2" fill="#FFF"/><path d="M176.724859 234.408923c2.7-.7 5.4-1.5 8.1-2.4l-14.5-41.9c-1.3.5-2.7.9-4.1 1.2l10.5 43.1z" fill="#1AC0F8"/><path d="M194.424859 202.408923l12.9 18.1c2.3-1.6 4.5-3.4 6.6-5.2l-14.5-16.8-43.6-50.3 38.6 54.2" fill="#FC0000"/><path d="M89.624859 141.808923l66.3 6.3-65.4-12.6c-.4 2.1-.7 4.2-.9 6.3" fill="#01AA5A"/><path d="M90.524859 135.508923l65.4 12.6-63.9-18.7c-.6 2-1.1 4.1-1.5 6.1" fill="#FF8C32"/><path d="M221.224859 160.708923l-65.4-12.6 63.9 18.8c.6-2 1.1-4.1 1.5-6.2" fill="#FFF"/><path d="M208.124859 107.008923c-1.3-1.7-2.7-3.3-4.1-4.8l-48.2 45.9 52.3-41.1" fill="#FC0000"/><path d="M208.124859 107.008923l-52.3 41.1 56-36c-1.1-1.7-2.4-3.5-3.7-5.1" fill="#FFF"/><path d="M207.324859 220.408923c-2.3 1.6-4.7 3.2-7.1 4.6l-44.4-76.9 36.9 80.7 9.2 20.2c3.2-1.5 6.3-3.1 9.4-4.8 3-1.8 6-3.7 8.9-5.7l-12.9-18.1z" fill="#FC0000"/><path d="M174.324859 188.508923l-18.4-40.4 14.5 41.9c1.3-.4 2.6-.9 3.9-1.5" fill="#FC0000"/><path d="M199.424859 139.708923l-43.6 8.4 44.2-4.2c-.1-1.4-.3-2.8-.6-4.2" fill="#000" fill-rule="nonzero"/><path d="M200.024859 143.908923l88.3-8.4c.4 4.2.6 8.4.6 12.7h22.2c0-4.9-.2-9.9-.7-14.8l-22.1 2.1c-.4-4.2-1-8.4-1.8-12.5l-21.8 4.2-65.4 12.6c.4 1.3.6 2.7.7 4.1l-44.2 4.2h44.4c0-1.4-.1-2.8-.2-4.2" fill="#FC0000"/><path d="M113.224859 160.608923l42.6-12.5-43.6 8.4c.3 1.4.7 2.8 1 4.1" fill="#0750C6"/><path d="M112.324859 156.508923l43.6-8.4-44.2 4.2c.1 1.5.3 2.8.6 4.2" fill="#FC0000"/><path d="M152.724859 170.108923l3.2-22-5.2 21.6c.6.2 1.3.3 2 .4" fill="#FFC832"/><path d="M150.624859 169.708923l5.2-21.6-7.3 21 2.1.6" fill="#FC0000"/><path d="M152.724859 126.208923l3.2 22-1.1-22.2c-.7 0-1.4.1-2.1.2" fill="#FFF"/><path d="M154.824859 126.008923l1.1 22.2 1.1-22.2c-.8-.1-1.5-.1-2.2 0" fill="#FC0000"/><path d="M228.524859 232.008923l14.5 16.7c3.2-2.8 6.2-5.7 9.2-8.7l-16-15.3c-2.5 2.5-5.1 5-7.7 7.3" fill="#FF8C32"/><path d="M236.124859 224.708923l-16.1-15.3c-1.9 2-4 4-6.1 5.8l14.5 16.8c2.7-2.3 5.3-4.8 7.7-7.3" fill="#FC0000"/><path d="M264.824859 169.108923l21.8 4.2c.8-4.1 1.4-8.3 1.8-12.5l-44.2-4.2c-.3 2.8-.7 5.6-1.2 8.4l21.8 4.1z" fill="#FFC832"/><path d="M242.924859 248.708923l-9.9 7.9c-3.4 2.5-7 4.7-10.7 6.8l-11.1-19.2c3-1.8 6-3.7 8.9-5.7 2.9-2 5.6-4.2 8.3-6.5l14.5 16.7" fill="#FFF"/><path d="M211.824859 112.108923c-1.1-1.8-2.4-3.5-3.7-5.2l34.9-27.4c2.2 2.8 4.2 5.6 6.1 8.6l-37.3 24z" fill="#FFC832"/><path d="M141.324859 190.108923l14.5-41.9-18.4 40.3c1.3.6 2.6 1.1 3.9 1.6" fill="#FFF"/><path d="M119.524859 253.008923c-3.3-1.2-6.6-2.5-9.8-3.9l27.7-60.5c-1.3-.6-2.5-1.2-3.8-1.9l22.2-38.4-18.4 40.2c1.3.6 2.6 1.1 3.9 1.6l-21.8 62.9z" fill="#FC0000"/></g></svg>
